#!OML:ASF E:\I on waltz\Acrobat_Osman\acrobat\cartwheel_test 2\Patient 1\Session 1\acrobat.ASF
:FULLY-SPECIFIED
:DEGREES
68
root 7.51578 21.5789 0.557191 -329.488 2.97733 178.313
lowerback 8.89872 -1.10299 2.58748
upperback 8.37133 -1.01578 1.53219
thorax 3.70567 -0.208417 0.210843
lowerneck -16.7081 -2.79372 -5.05711
upperneck -15.0491 -3.47529 6.83255
head -1.87831 -1.5972 3.01488
rclavicle -6.70898e-015 -8.94531e-016
rhumerus -38.7142 37.8436 -89.11
rradius 79.6482
rwrist -68.3357
rhand 4.56536 7.64919
rfingers 7.12502
rthumb 29.9553 -19.9462
lclavicle -6.70898e-015 -8.94531e-016
lhumerus -35.3746 -31.0538 91.4122
lradius 65.8503
lwrist 52.4632
lhand -26.0743 46.4468
lfingers 7.12502
lthumb 0.473966 -283.574
rfemur -128.822 -15.3369 26.3094
rtibia 125.41
rfoot -2.84936 6.37327
rtoes -19.3273
lfemur -132.771 7.19703 -24.7415
ltibia 134.03
lfoot 5.20022 -18.6381
ltoes -30.2324
69
root 7.37203 21.7503 1.21174 -338.975 3.72959 178.664
lowerback 7.20041 -1.5275 4.03756
upperback 8.19417 -1.69475 1.44707
thorax 4.41451 -0.512279 -0.685858
lowerneck -15.2959 -4.06387 -6.08145
upperneck -14.4116 -4.78429 7.78833
head -1.74772 -2.13787 3.48476
rclavicle -2.50469e-014 1.82882e-014
rhumerus -35.6341 39.0952 -86.9598
rradius 76.9198
rwrist -66.8878
rhand 12.0447 13.1909
rfingers 7.12502
rthumb 37.063 -12.8573
lclavicle -2.50469e-014 1.82882e-014
lhumerus -33.4661 -31.5805 90.4802
lradius 65.8796
lwrist 50.0189
lhand -22.9779 45.8375
lfingers 7.12502
lthumb 3.46445 -284.211
rfemur -130.372 -16.7648 28.1054
rtibia 122.634
rfoot -3.56978 8.0297
rtoes -19.8292
lfemur -134.219 3.27485 -25.0576
ltibia 132.662
lfoot 4.66217 -15.9143
ltoes -32.7719
70
root 7.25809 21.7986 1.94887 -348.046 4.20478 178.21
lowerback 6.79871 -1.87521 5.27917
upperback 6.60069 -2.16398 1.58209
thorax 2.9051 -0.80967 -1.2188
lowerneck -12.5917 -3.6845 -6.41888
upperneck -15.761 -4.15353 7.3427
head -2.70989 -1.74344 3.51133
rclavicle -2.5842e-015 -3.97569e-015
rhumerus -37.851 40.4905 -88.5944
rradius 76.8788
rwrist -66.179
rhand 10.9283 13.3915
rfingers 7.12502
rthumb 36.0063 -12.9235
lclavicle -2.5842e-015 -3.97569e-015
lhumerus -34.5439 -29.4909 90.7769
lradius 68.5918
lwrist 49.6044
lhand -21.918 46.367
lfingers 7.12502
lthumb 4.48791 -283.701
rfemur -132.126 -16.5122 29.9955
rtibia 119.074
rfoot -3.21501 7.85826
rtoes -15.7388
lfemur -135.786 0.943497 -24.6841
ltibia 130.991
lfoot 3.17143 -12.482
ltoes -31.9126
71
root 7.1955 21.7196 2.81308 -356.927 3.95449 177.666
lowerback 5.04389 -1.81038 5.7329
upperback 7.4201 -2.30177 1.64136
thorax 4.73873 -0.818473 -1.46671
lowerneck -12.2064 -3.63344 -5.77869
upperneck -19.08 -4.08908 6.533
head -3.51535 -1.57393 2.94466
rclavicle 9.14409e-015 -1.43125e-014
rhumerus -36.1823 40.1742 -86.6058
rradius 78.0878
rwrist -66.4033
rhand 13.3998 14.5292
rfingers 7.12502
rthumb 38.3433 -11.1758
lclavicle 9.14409e-015 -1.43125e-014
lhumerus -30.6459 -27.7218 88.5
lradius 72.1754
lwrist 51.0257
lhand -22.2427 49.3788
lfingers 7.12502
lthumb 4.1744 -280.682
rfemur -134.494 -14.6287 31.2499
rtibia 114.995
rfoot -1.33995 9.08878
rtoes -14.2707
lfemur -137.901 -0.322681 -24.112
ltibia 128.6
lfoot 1.65352 -8.27313
ltoes -32.7703
72
root 7.16441 21.4334 3.69544 -365.608 3.37618 177.729
lowerback 5.53298 -1.6154 5.23876
upperback 6.71181 -2.03947 1.65221
thorax 3.74272 -0.782619 -1.16841
lowerneck -12.4467 -3.70093 -5.19578
upperneck -16.8988 -4.09119 5.47573
head -3.19348 -1.54301 2.66071
rclavicle -6.95746e-016 2.78299e-015
rhumerus -37.6427 38.8364 -86.4895
rradius 79.3345
rwrist -65.4568
rhand 13.7106 14.1949
rfingers 7.12502
rthumb 38.6366 -11.4282
lclavicle -6.95746e-016 2.78299e-015
lhumerus -30.4548 -25.127 87.0687
lradius 77.1068
lwrist 52.2935
lhand -23.57 55.9574
lfingers 7.12502
lthumb 2.8926 -274.082
rfemur -135.551 -12.5055 30.5176
rtibia 109.694
rfoot -14.273 9.03355
rtoes -46.3303
lfemur -139.194 -1.2194 -23.3203
ltibia 124.471
lfoot -0.595697 -3.37576
ltoes -31.4523
73
root 7.14314 20.9415 4.60492 -374.02 2.77643 177.952
lowerback 5.46866 -1.33427 4.54405
upperback 6.65114 -1.74376 1.68328
thorax 3.74748 -0.693567 -0.760633
lowerneck -12.3953 -3.73181 -5.09964
upperneck -15.49 -4.0056 5.16145
head -2.71276 -1.49512 2.49944
rclavicle 7.72775e-015 -2.14687e-014
rhumerus -37.9378 37.2899 -85.7135
rradius 81.2486
rwrist -63.8169
rhand 12.6432 13.8939
rfingers 7.12502
rthumb 37.6288 -12.0054
lclavicle 7.72775e-015 -2.14687e-014
lhumerus -27.8249 -23.8883 85.1627
lradius 77.7874
lwrist 55.6448
lhand -25.6141 65.4897
lfingers 7.12502
lthumb 0.918462 -95.4675
rfemur -136.092 -10.033 29.4056
rtibia 103.152
rfoot -20.2298 5.75451
rtoes -54.798
lfemur -140.215 -1.76537 -22.4076
ltibia 118.831
lfoot -2.38152 0.175267
ltoes -31.254
74
root 7.11994 20.2543 5.47248 -382.331 2.15202 177.984
lowerback 5.31162 -1.11966 4.07737
upperback 6.75654 -1.54472 1.84732
thorax 3.96979 -0.637413 -0.341579
lowerneck -11.8866 -3.81298 -5.12348
upperneck -13.7117 -4.0677 4.85783
head -2.18432 -1.55876 2.36842
rclavicle -1.52567e-014 1.74931e-014
rhumerus -37.1276 37.4669 -85.1047
rradius 82.1939
rwrist -62.6494
rhand 10.0478 14.0416
rfingers 7.12502
rthumb 35.1717 -12.4742
lclavicle -1.52567e-014 1.74931e-014
lhumerus -29.026 -26.6321 86.9694
lradius 79.3562
lwrist 48.9544
lhand -22.6907 73.3417
lfingers 7.12502
lthumb 3.74183 -103.289
rfemur -135.743 -7.75026 28.6854
rtibia 95.1344
rfoot -20.5023 0.459931
rtoes -54.9682
lfemur -139.634 -1.86886 -21.0093
ltibia 110.285
lfoot -4.9645 2.31402
ltoes -30.6525
75
root 7.09463 19.437 6.20039 -390.961 1.1923 177.159
lowerback 5.74111 -1.16653 5.18934
upperback 7.66936 -1.68736 1.88472
thorax 4.67963 -0.655393 -0.916673
lowerneck -14.1334 -4.02731 -4.5435
upperneck -10.9387 -4.26955 4.51058
head -0.91074 -1.67914 2.0515
rclavicle 1.39149e-014 2.54444e-014
rhumerus -34.0313 37.1678 -84.2241
rradius 82.637
rwrist -60.831
rhand 7.86685 13.328
rfingers 7.12502
rthumb 33.1004 -13.6509
lclavicle 1.39149e-014 2.54444e-014
lhumerus -26.7122 -27.2514 85.6363
lradius 79.9361
lwrist 48.2018
lhand -21.5624 71.8765
lfingers 7.12502
lthumb 4.83129 -101.801
rfemur -133.676 -5.94315 28.4769
rtibia 85.7232
rfoot -21.345 -4.72593
rtoes -53.3751
lfemur -137.646 -2.12794 -18.3467
ltibia 99.7955
lfoot -20.5054 5.18067
ltoes -58.4331
76
root 7.09726 18.4862 6.83893 -398.13 1.14197 178.301
lowerback 4.96222 -0.965966 3.77612
upperback 7.99407 -1.56822 1.57563
thorax 5.48361 -0.671491 -0.474143
lowerneck -15.5198 -4.0064 -4.39129
upperneck -7.51556 -4.24591 4.28505
head 0.41809 -1.72257 1.90484
rclavicle 5.96354e-015 7.95139e-016
rhumerus -31.6554 37.3612 -83.6826
rradius 81.6752
rwrist -58.6332
rhand 5.18981 13.7412
rfingers 7.12502
rthumb 30.551 -13.7449
lclavicle 5.96354e-015 7.95139e-016
lhumerus -25.9324 -27.8603 84.2643
lradius 80.7126
lwrist 48.822
lhand -20.9108 70.5346
lfingers 7.12502
lthumb 5.46047 -100.444
rfemur -132.196 -4.12634 26.3149
rtibia 75.1605
rfoot -21.717 -9.12612
rtoes -49.7789
lfemur -135.229 -2.05999 -17.456
ltibia 87.3856
lfoot -167.656 171.683
ltoes 72.9319
77
root 7.07436 17.9539 6.98068 -405.828 0.39384 178.231
lowerback 4.98593 -0.73845 3.92281
upperback 8.33912 -1.36993 1.75614
thorax 5.85402 -0.593233 -0.372706
lowerneck -16.4869 -3.96978 -3.76436
upperneck -4.44411 -4.33388 3.54093
head 1.56337 -1.83661 1.52451
rclavicle 1.0138e-014 -1.19271e-014
rhumerus -29.2344 36.1352 -83.4072
rradius 79.1523
rwrist -54.8378
rhand 2.18162 14.2277
rfingers 7.12502
rthumb 27.6783 -13.7557
lclavicle 1.0138e-014 -1.19271e-014
lhumerus -24.2822 -28.5826 83.3094
lradius 79.0027
lwrist 49.7668
lhand -20.6472 69.153
lfingers 7.12502
lthumb 5.71502 -99.0559
rfemur -129.745 -3.13042 25.3552
rtibia 66.4404
rfoot -20.1575 -2.28475
rtoes -35.0892
lfemur -134.429 -1.35777 -14.7239
ltibia 74.8635
lfoot -192.209 168.397
ltoes 63.0837
78
root 7.05785 16.9916 7.51184 -411.924 0.786272 179.473
lowerback 3.19022 -0.186588 1.92386
upperback 8.04496 -0.718727 1.81341
thorax 6.58811 -0.404408 0.786035
lowerneck -16.7863 -3.91766 -3.56031
upperneck -1.17912 -4.39807 2.97751
head 2.71445 -1.94819 1.28508
rclavicle 5.56597e-015 -1.19271e-014
rhumerus -29.1124 33.6387 -82.6827
rradius 77.6865
rwrist -50.8796
rhand 1.10647 13.1247
rfingers 7.12502
rthumb 26.6498 -15.0195
lclavicle 5.56597e-015 -1.19271e-014
lhumerus -21.8856 -29.6016 83.1535
lradius 74.9035
lwrist 50.8879
lhand -20.4496 67.7045
lfingers 7.12502
lthumb 5.9058 -97.6022
rfemur -131.763 2.29155 31.5821
rtibia 59.6838
rfoot -19.664 -13.1142
rtoes -17.7587
lfemur -132.795 0.441379 -10.6601
ltibia 63.5768
lfoot -196.733 168.369
ltoes 71.1931
79
root 7.05365 15.9019 8.16977 -417.24 1.37339 180.301
lowerback 0.430387 -0.096561 0.246302
upperback 7.26741 0.0256265 1.93745
thorax 7.33275 0.0456404 1.90299
lowerneck -17.2247 -3.83304 -3.53827
upperneck 3.4959 -4.39198 2.28712
head 3.91097 -2.0349 0.914622
rclavicle 4.77083e-015 2.38542e-015
rhumerus -29.3088 29.9629 -81.198
rradius 76.2038
rwrist -46.2013
rhand -2.90901 15.6489
rfingers 7.12502
rthumb 22.8013 -13.0235
lclavicle 4.77083e-015 2.38542e-015
lhumerus -21.1802 -30.5446 83.7744
lradius 71.2852
lwrist 51.5246
lhand -20.3249 66.4901
lfingers 7.12502
lthumb 6.02618 -96.3844
rfemur -135.167 3.26226 29.1934
rtibia 58.9792
rfoot -19.533 -17.4713
rtoes -16.2514
lfemur -131.923 1.94092 -8.6326
ltibia 58.5321
lfoot -199.014 167.279
ltoes 71.2508
80
root 7.02134 14.408 8.97684 -421.812 2.03789 180.461
lowerback -4.0931 0.120849 -0.47234
upperback 6.23828 0.233591 1.92082
thorax 8.86208 0.0688573 2.33452
lowerneck -17.6611 -3.84466 -3.4256
upperneck 8.49489 -4.4468 1.33707
head 5.52385 -2.16418 0.538992
rclavicle 2.5842e-015 1.63003e-014
rhumerus -29.8856 25.569 -79.193
rradius 75.8175
rwrist -45.6882
rhand -4.81638 14.3565
rfingers 7.12502
rthumb 20.9698 -14.5299
lclavicle 2.5842e-015 1.63003e-014
lhumerus -21.8894 -29.7245 84.0109
lradius 70.8933
lwrist 48.5184
lhand -19.6439 63.5298
lfingers 7.12502
lthumb 6.68356 -93.4043
rfemur -141.107 3.98325 28.0847
rtibia 61.1506
rfoot -20.38 -20.1063
rtoes -14.8125
lfemur -133.366 1.21573 -10.5804
ltibia 62.0494
lfoot -194.365 167.008
ltoes 67.0032
81
root 6.95962 13.0361 9.77303 -427.614 2.38838 180.098
lowerback -6.94622 -0.0116217 0.0225296
upperback 5.5511 -0.0423075 1.6032
thorax 9.81132 -0.0426265 1.69869
lowerneck -18.2846 -3.85586 -3.28192
upperneck 13.0575 -4.40838 0.642665
head 7.07613 -2.21167 0.242026
rclavicle 4.37326e-015 -3.18055e-015
rhumerus -29.4569 21.4008 -77.4402
rradius 74.9624
rwrist -46.3708
rhand -9.81791 15.5134
rfingers 7.12502
rthumb 16.159 -13.833
lclavicle 4.37326e-015 -3.18055e-015
lhumerus -22.7131 -27.1627 83.1005
lradius 71.8609
lwrist 47.1671
lhand -19.5612 60.3194
lfingers 7.12502
lthumb 6.76342 -90.1913
rfemur -145.143 7.36214 33.1175
rtibia 69.185
rfoot -19.0389 -14.99
rtoes -15.6805
lfemur -137.079 -1.76397 -14.85
ltibia 72.4556
lfoot -197.512 161.062
ltoes 64.091
82
root 6.86013 11.7855 10.4305 -432.675 11.6051 181.875
lowerback -7.59675 -0.982404 -7.51193
upperback 4.95268 -0.151089 -1.57854
thorax 9.62888 -0.450416 2.5107
lowerneck -18.9946 -3.73583 -3.67286
upperneck 15.4803 -4.23412 1.21943
head 8.01815 -2.09403 0.48198
rclavicle 1.41137e-014 -7.15625e-015
rhumerus -26.0343 16.4155 -75.3969
rradius 73.0276
rwrist -44.7134
rhand -13.4482 15.0807
rfingers 7.12502
rthumb 12.6611 -14.5155
lclavicle 1.41137e-014 -7.15625e-015
lhumerus -21.6614 -22.9091 80.8677
lradius 73.0797
lwrist 47.847
lhand -19.439 57.1425
lfingers 7.12502
lthumb 6.88136 87.0106
rfemur -149.471 6.04436 22.8743
rtibia 76.3791
rfoot -19.4843 -14.3255
rtoes -13.7744
lfemur -142.185 -7.03179 -25.7645
ltibia 86.5872
lfoot -221.674 189.21
ltoes 8.35868
